<?xml version="1.0" encoding="UTF-8"?>
<svg id="Layer_2" data-name="Layer 2" xmlns="http://www.w3.org/2000/svg" viewBox="0 0 312.41 50.57">
  <defs>
    <style>
      .cls-1 {
        fill: #1c1a16;
      }
    </style>
  </defs>
  <g id="Layer_1-2" data-name="Layer 1">
    <path class="cls-1" d="M34.74,22.34h.03c.52-.03,1.05-.05,1.58-.05v-9.1c.53,0,1.05.01,1.57.03h0v-4.38c1.74-.64,2.99-2.31,2.99-4.28,0-2.52-2.04-4.57-4.57-4.57s-4.57,2.04-4.57,4.57c0,1.97,1.25,3.64,2.99,4.28v4.38s0,0,0,0h0s-.02,0-.03,0C17.57,13.97,3.49,26.58.46,43.05c-.2,1.12-.36,2.25-.46,3.41h14.99c.1-1.15.26-2.29.46-3.41h-5.69c.28-1.11.62-2.2,1.03-3.25h5.41c.33-1.16.71-2.3,1.14-3.41h-4.96c4.43-7.97,12.72-13.5,22.35-14.06Z"/>
    <path class="cls-1" d="M59.06,21.12c-.24-.19-.48-.37-.72-.55l-6.52,6.52c.25.17.5.35.75.53,6.77,4.99,11.16,13.02,11.16,22.07h9.1c0-11.57-5.38-21.87-13.78-28.56Z"/>
    <circle class="cls-1" cx="36.35" cy="37.73" r="4.57"/>
    <circle class="cls-1" cx="51.31" cy="37.73" r="4.57"/>
    <path class="cls-1" d="M54.18,17.84c-4.41-2.47-9.38-4.06-14.68-4.51v9.14c3.32.38,6.47,1.36,9.32,2.82.08.04.15.08.22.12l.86-.87,5.79-5.79s.02,0,.02.01c.2.13.41.26.61.39,0,0,0,0,.02,0,.2.13.39.26.58.39l3.46-3.47h0c.58.27,1.23.42,1.91.42,2.52,0,4.57-2.04,4.57-4.57s-2.04-4.57-4.57-4.57-4.57,2.04-4.57,4.57c0,.68.15,1.33.42,1.91h0s-3.99,3.99-3.99,3.99Z"/>
    <path class="cls-1" d="M43.83,47.73c-1.45,0-2.62-1.17-2.62-2.62h-1.96c0,2.53,2.05,4.58,4.58,4.58s4.58-2.05,4.58-4.58h-1.96c0,1.45-1.17,2.62-2.62,2.62Z"/>
    <path class="cls-1" d="M136.85,32.24c-2.68-.77-4.75-1.75-4.8-3.56,0-1.39,1.08-2.84,3.36-2.84,2.63,0,3.4,1.55,3.46,3.05h6.66c-.57-6.81-6.25-8.52-10.07-8.52-5.47,0-10.16,3.46-10.16,9.03.05,4.08,3.15,6.19,6.97,7.38,5.21,1.81,7.33,2.48,7.33,4.9.05,1.91-1.75,3.31-3.87,3.31-1.29,0-3.92-.62-4.18-3.67h-6.76c.51,6.86,6.45,9.13,10.84,9.13,5.93,0,10.84-3.72,10.73-9.55-.05-6.09-4.95-7.43-9.49-8.67Z"/>
    <path class="cls-1" d="M157.95,21.25v-7.45h-6.76v7.45h-4.69v5.21h4.69v23.12h6.76v-23.12h4.85v-5.21h-4.85Z"/>
    <path class="cls-1" d="M171.01,24.96v-3.72h-6.4v28.33h6.76v-15.28c0-4.9,2.43-7.12,7.17-7.12h.31v-6.81c-4.28.05-6.61,2.07-7.84,4.59Z"/>
    <path class="cls-1" d="M192.94,20.42c-9.86,0-15.17,7.69-15.17,14.91v.05c0,7.33,5.31,15.02,15.17,15.02s15.17-7.69,15.17-15.02-5.31-14.96-15.17-14.96ZM192.94,44.06c-4.64,0-8.41-3.66-8.41-8.62v-.05c0-5,3.77-8.67,8.41-8.67s8.36,3.66,8.36,8.67-3.72,8.67-8.36,8.67Z"/>
    <path class="cls-1" d="M263.87,24.71c-2.63-2.74-6.35-4.34-10.58-4.34-8.57,0-14.86,7.07-14.86,15.12s6.24,14.96,14.96,14.96c2.94,0,5.73-.83,8.1-2.48,2.37-1.6,4.38-3.97,5.73-7.12h-6.97c-1.29,2.32-3.51,3.82-6.81,3.82-3.87.05-7.89-2.48-8.2-7.02h22.81c.56-4.95-.72-9.39-4.18-12.95ZM245.35,32.5c.26-2.79,2.99-6.4,8-6.4,4.95-.05,7.79,3.71,8.05,6.4h-16.05Z"/>
    <path class="cls-1" d="M294.9,24.82c-2.63-2.74-6.35-4.33-10.58-4.33-8.56,0-14.86,7.07-14.86,15.12s6.24,14.97,14.96,14.97c2.94,0,5.73-.83,8.1-2.48,2.37-1.6,4.38-3.97,5.73-7.12h-6.96c-1.29,2.32-3.51,3.82-6.81,3.82-3.87.05-7.89-2.48-8.2-7.02h22.81c.57-4.95-.72-9.39-4.18-12.95ZM276.37,32.61c.26-2.79,2.99-6.4,8-6.4,4.95-.05,7.79,3.71,8.05,6.4h-16.05Z"/>
    <path class="cls-1" d="M308.12,27.01c-.27,1.65-1.49,1.7-1.75,1.7-1.25,0-2.04-.95-2.04-2.38,0-1.22.61-2.43,2.04-2.43.61,0,1.41.22,1.68,1.32h1.36c-.1-1.27-1.22-2.52-3.05-2.52-2.2,0-3.45,1.67-3.45,3.61,0,2.18,1.41,3.61,3.4,3.61,1.73,0,3.05-1.09,3.2-2.92h-1.4ZM308.12,27.01c-.27,1.65-1.49,1.7-1.75,1.7-1.25,0-2.04-.95-2.04-2.38,0-1.22.61-2.43,2.04-2.43.61,0,1.41.22,1.68,1.32h1.36c-.1-1.27-1.22-2.52-3.05-2.52-2.2,0-3.45,1.67-3.45,3.61,0,2.18,1.41,3.61,3.4,3.61,1.73,0,3.05-1.09,3.2-2.92h-1.4ZM308.12,27.01c-.27,1.65-1.49,1.7-1.75,1.7-1.25,0-2.04-.95-2.04-2.38,0-1.22.61-2.43,2.04-2.43.61,0,1.41.22,1.68,1.32h1.36c-.1-1.27-1.22-2.52-3.05-2.52-2.2,0-3.45,1.67-3.45,3.61,0,2.18,1.41,3.61,3.4,3.61,1.73,0,3.05-1.09,3.2-2.92h-1.4ZM308.12,27.01c-.27,1.65-1.49,1.7-1.75,1.7-1.25,0-2.04-.95-2.04-2.38,0-1.22.61-2.43,2.04-2.43.61,0,1.41.22,1.68,1.32h1.36c-.1-1.27-1.22-2.52-3.05-2.52-2.2,0-3.45,1.67-3.45,3.61,0,2.18,1.41,3.61,3.4,3.61,1.73,0,3.05-1.09,3.2-2.92h-1.4ZM308.12,27.01c-.27,1.65-1.49,1.7-1.75,1.7-1.25,0-2.04-.95-2.04-2.38,0-1.22.61-2.43,2.04-2.43.61,0,1.41.22,1.68,1.32h1.36c-.1-1.27-1.22-2.52-3.05-2.52-2.2,0-3.45,1.67-3.45,3.61,0,2.18,1.41,3.61,3.4,3.61,1.73,0,3.05-1.09,3.2-2.92h-1.4ZM308.12,27.01c-.27,1.65-1.49,1.7-1.75,1.7-1.25,0-2.04-.95-2.04-2.38,0-1.22.61-2.43,2.04-2.43.61,0,1.41.22,1.68,1.32h1.36c-.1-1.27-1.22-2.52-3.05-2.52-2.2,0-3.45,1.67-3.45,3.61,0,2.18,1.41,3.61,3.4,3.61,1.73,0,3.05-1.09,3.2-2.92h-1.4ZM308.12,27.01c-.27,1.65-1.49,1.7-1.75,1.7-1.25,0-2.04-.95-2.04-2.38,0-1.22.61-2.43,2.04-2.43.61,0,1.41.22,1.68,1.32h1.36c-.1-1.27-1.22-2.52-3.05-2.52-2.2,0-3.45,1.67-3.45,3.61,0,2.18,1.41,3.61,3.4,3.61,1.73,0,3.05-1.09,3.2-2.92h-1.4ZM308.12,27.01c-.27,1.65-1.49,1.7-1.75,1.7-1.25,0-2.04-.95-2.04-2.38,0-1.22.61-2.43,2.04-2.43.61,0,1.41.22,1.68,1.32h1.36c-.1-1.27-1.22-2.52-3.05-2.52-2.2,0-3.45,1.67-3.45,3.61,0,2.18,1.41,3.61,3.4,3.61,1.73,0,3.05-1.09,3.2-2.92h-1.4ZM308.12,27.01c-.27,1.65-1.49,1.7-1.75,1.7-1.25,0-2.04-.95-2.04-2.38,0-1.22.61-2.43,2.04-2.43.61,0,1.41.22,1.68,1.32h1.36c-.1-1.27-1.22-2.52-3.05-2.52-2.2,0-3.45,1.67-3.45,3.61,0,2.18,1.41,3.61,3.4,3.61,1.73,0,3.05-1.09,3.2-2.92h-1.4ZM308.12,27.01c-.27,1.65-1.49,1.7-1.75,1.7-1.25,0-2.04-.95-2.04-2.38,0-1.22.61-2.43,2.04-2.43.61,0,1.41.22,1.68,1.32h1.36c-.1-1.27-1.22-2.52-3.05-2.52-2.2,0-3.45,1.67-3.45,3.61,0,2.18,1.41,3.61,3.4,3.61,1.73,0,3.05-1.09,3.2-2.92h-1.4ZM306.32,20.2h-.02c-3.52,0-6.17,2.81-6.17,6.15s2.75,6.15,6.15,6.15,6.12-2.73,6.12-6.15-2.67-6.15-6.09-6.15ZM306.29,31.47c-2.78,0-5.04-2.26-5.04-5.12s2.17-5.12,5.03-5.12h.02c2.86,0,5.01,2.34,5.01,5.12s-2.25,5.12-5.01,5.12ZM306.37,28.71c-1.25,0-2.04-.95-2.04-2.38,0-1.22.61-2.43,2.04-2.43.61,0,1.41.22,1.68,1.32h1.36c-.1-1.27-1.22-2.52-3.05-2.52-2.2,0-3.45,1.67-3.45,3.61,0,2.18,1.41,3.61,3.4,3.61,1.73,0,3.05-1.09,3.2-2.92h-1.4c-.27,1.65-1.49,1.7-1.75,1.7ZM308.12,27.01c-.27,1.65-1.49,1.7-1.75,1.7-1.25,0-2.04-.95-2.04-2.38,0-1.22.61-2.43,2.04-2.43.61,0,1.41.22,1.68,1.32h1.36c-.1-1.27-1.22-2.52-3.05-2.52-2.2,0-3.45,1.67-3.45,3.61,0,2.18,1.41,3.61,3.4,3.61,1.73,0,3.05-1.09,3.2-2.92h-1.4ZM308.12,27.01c-.27,1.65-1.49,1.7-1.75,1.7-1.25,0-2.04-.95-2.04-2.38,0-1.22.61-2.43,2.04-2.43.61,0,1.41.22,1.68,1.32h1.36c-.1-1.27-1.22-2.52-3.05-2.52-2.2,0-3.45,1.67-3.45,3.61,0,2.18,1.41,3.61,3.4,3.61,1.73,0,3.05-1.09,3.2-2.92h-1.4ZM308.12,27.01c-.27,1.65-1.49,1.7-1.75,1.7-1.25,0-2.04-.95-2.04-2.38,0-1.22.61-2.43,2.04-2.43.61,0,1.41.22,1.68,1.32h1.36c-.1-1.27-1.22-2.52-3.05-2.52-2.2,0-3.45,1.67-3.45,3.61,0,2.18,1.41,3.61,3.4,3.61,1.73,0,3.05-1.09,3.2-2.92h-1.4ZM308.12,27.01c-.27,1.65-1.49,1.7-1.75,1.7-1.25,0-2.04-.95-2.04-2.38,0-1.22.61-2.43,2.04-2.43.61,0,1.41.22,1.68,1.32h1.36c-.1-1.27-1.22-2.52-3.05-2.52-2.2,0-3.45,1.67-3.45,3.61,0,2.18,1.41,3.61,3.4,3.61,1.73,0,3.05-1.09,3.2-2.92h-1.4ZM308.12,27.01c-.27,1.65-1.49,1.7-1.75,1.7-1.25,0-2.04-.95-2.04-2.38,0-1.22.61-2.43,2.04-2.43.61,0,1.41.22,1.68,1.32h1.36c-.1-1.27-1.22-2.52-3.05-2.52-2.2,0-3.45,1.67-3.45,3.61,0,2.18,1.41,3.61,3.4,3.61,1.73,0,3.05-1.09,3.2-2.92h-1.4ZM308.12,27.01c-.27,1.65-1.49,1.7-1.75,1.7-1.25,0-2.04-.95-2.04-2.38,0-1.22.61-2.43,2.04-2.43.61,0,1.41.22,1.68,1.32h1.36c-.1-1.27-1.22-2.52-3.05-2.52-2.2,0-3.45,1.67-3.45,3.61,0,2.18,1.41,3.61,3.4,3.61,1.73,0,3.05-1.09,3.2-2.92h-1.4ZM308.12,27.01c-.27,1.65-1.49,1.7-1.75,1.7-1.25,0-2.04-.95-2.04-2.38,0-1.22.61-2.43,2.04-2.43.61,0,1.41.22,1.68,1.32h1.36c-.1-1.27-1.22-2.52-3.05-2.52-2.2,0-3.45,1.67-3.45,3.61,0,2.18,1.41,3.61,3.4,3.61,1.73,0,3.05-1.09,3.2-2.92h-1.4ZM308.12,27.01c-.27,1.65-1.49,1.7-1.75,1.7-1.25,0-2.04-.95-2.04-2.38,0-1.22.61-2.43,2.04-2.43.61,0,1.41.22,1.68,1.32h1.36c-.1-1.27-1.22-2.52-3.05-2.52-2.2,0-3.45,1.67-3.45,3.61,0,2.18,1.41,3.61,3.4,3.61,1.73,0,3.05-1.09,3.2-2.92h-1.4Z"/>
    <path class="cls-1" d="M109.75,11.39h-6.4l-15.48,38.19h8.36s.68-1.34,1.33-2.06c.4-.45,3.42-4.3,8.92-4.3.03,0,.05,0,.08,0,.02,0,.05,0,.08,0,5.5,0,8.51,3.84,8.92,4.3.64.72,1.33,2.06,1.33,2.06h8.36l-15.48-38.19ZM106.63,36.95s-.05,0-.08,0c-.02,0-.05,0-.08,0-3.72,0-6.39,1.98-6.47,2.04l6.54-18.66h0s0,0,0,0l6.54,18.66c-.08-.06-2.75-2.04-6.47-2.04Z"/>
    <path class="cls-1" d="M210.51,11.39h12.54c3.72,0,6.61.77,8.57,2.27,2.58,1.7,3.72,4.49,3.72,7.64,0,3.51-1.81,6.24-4.7,7.84,6.4,2.17,6.66,7.53,6.66,9.19,0,3.46-1.44,6.71-4.13,8.57-3.04,2.32-5.47,2.68-10.89,2.68h-11.77V11.39ZM217.55,26.81h5.02c1.08,0,2.32-.1,3.3-.52,1.5-.77,2.17-2.12,2.17-4.51,0-1.96-1.03-3.15-2.12-3.61-.88-.41-2.01-.57-3.41-.57h-4.97v9.21ZM217.55,43.04h6.17c.98,0,2.37-.05,3.56-.57,1.55-.67,2.73-1.96,2.73-4.39s-1.14-3.89-2.68-4.56c-1.24-.52-2.53-.52-3.87-.52h-5.91v10.03Z"/>
  </g>
</svg>